<?xml version="1.0" standalone="no"?>
<!DOCTYPE svg PUBLIC "-//W3C//DTD SVG 20010904//EN"
 "http://www.w3.org/TR/2001/REC-SVG-20010904/DTD/svg10.dtd">
<svg version="1.0" xmlns="http://www.w3.org/2000/svg"
 width="700.000000pt" height="700.000000pt" viewBox="0 0 700.000000 700.000000"
 preserveAspectRatio="xMidYMid meet">
<metadata>
Created by potrace 1.14, written by Peter Selinger 2001-2017
</metadata>
<g transform="translate(0.000000,700.000000) scale(0.100000,-0.100000)"
fill="#000000" stroke="none">
<path d="M5945 6038 c-78 -10 -164 -39 -293 -99 -57 -27 -105 -49 -106 -49 -2
0 -64 -29 -137 -64 -74 -35 -163 -77 -199 -94 -36 -16 -144 -67 -240 -112 -96
-45 -202 -95 -235 -110 -33 -15 -98 -46 -145 -68 -47 -22 -179 -83 -295 -137
-115 -54 -253 -118 -305 -142 -52 -25 -120 -56 -150 -70 -30 -14 -98 -46 -150
-70 -52 -25 -117 -56 -145 -68 -27 -12 -85 -39 -128 -59 -43 -20 -81 -35 -85
-32 -4 2 -34 6 -67 10 -33 3 -71 8 -85 11 -23 4 -145 20 -222 30 -18 2 -49 6
-68 9 -36 6 -97 14 -148 20 -48 7 -185 27 -212 32 -14 3 -74 7 -135 11 -185 9
-273 -19 -296 -97 -16 -51 -4 -103 30 -137 16 -15 116 -72 223 -126 108 -54
202 -103 211 -110 14 -10 2 -19 -81 -57 -53 -24 -162 -75 -240 -112 -79 -37
-145 -68 -147 -68 -2 0 -61 -27 -132 -61 -70 -33 -148 -70 -173 -81 -25 -11
-88 -41 -140 -65 -93 -44 -96 -45 -146 -34 -58 13 -80 17 -144 25 -62 8 -91
14 -195 36 -165 35 -219 58 -725 302 -102 49 -204 99 -228 110 -67 32 -136 9
-142 -47 -5 -48 4 -68 80 -174 44 -61 80 -116 80 -120 0 -5 4 -11 8 -13 5 -1
30 -34 57 -73 375 -541 413 -591 488 -642 39 -28 93 -61 118 -75 l46 -24 -48
-174 c-52 -187 -59 -234 -38 -268 24 -38 88 -54 129 -32 10 5 35 33 56 62 21
29 43 58 49 64 5 6 48 61 95 123 l85 113 50 -6 c28 -3 59 -8 71 -10 94 -19
373 -25 529 -12 44 4 139 16 211 26 110 16 173 28 334 65 8 2 69 20 135 39 66
20 127 38 135 40 29 8 195 79 205 87 5 5 17 9 27 9 15 0 13 -7 -14 -52 -17
-29 -42 -73 -56 -98 -13 -25 -39 -70 -57 -100 -18 -30 -103 -179 -190 -330
-87 -151 -169 -293 -182 -315 -62 -104 -76 -141 -69 -178 9 -48 55 -87 104
-88 105 -2 151 2 219 20 124 34 182 76 378 276 83 85 282 289 444 455 l294
301 30 -31 c59 -60 120 -77 196 -55 47 14 97 57 121 104 7 13 12 50 12 82 0
50 -5 66 -28 97 -16 20 -38 45 -49 54 -20 17 -19 18 47 85 36 37 117 121 180
185 216 224 391 398 399 398 4 0 47 18 96 41 48 22 102 47 118 54 17 7 64 29
105 48 41 19 98 45 125 57 28 12 101 47 163 76 63 30 115 54 118 54 2 0 41 17
86 39 46 21 110 51 143 66 33 15 85 40 117 55 l56 27 -10 -26 c-14 -36 -11
-103 5 -144 20 -46 71 -92 119 -107 42 -12 113 -6 136 12 6 6 12 7 12 2 0 -4
16 7 35 26 104 100 74 266 -57 321 -27 11 -25 13 82 66 293 144 504 296 616
444 144 188 102 353 -96 383 -67 10 -100 25 -157 68 -96 73 -144 103 -223 135
-149 63 -256 79 -395 61z"/>
<path d="M85 726 c-52 -23 -78 -60 -83 -118 -5 -68 8 -99 54 -135 l37 -28
3395 -1 c3280 0 3395 0 3431 18 55 28 76 63 76 128 0 59 -13 85 -60 122 l-30
23 -3395 2 c-2796 2 -3400 0 -3425 -11z"/>
</g>
</svg>
